<?xml version="1.0" encoding="utf-8"?>
<!-- Generator: Adobe Illustrator 24.1.3, SVG Export Plug-In . SVG Version: 6.00 Build 0)  -->
<svg version="1.1" xmlns="http://www.w3.org/2000/svg" xmlns:xlink="http://www.w3.org/1999/xlink" x="0px" y="0px"
	 viewBox="0 0 570.51 120" style="enable-background:new 0 0 570.51 120;" xml:space="preserve">
<style type="text/css">
	.st0{display:none;fill:#EF7E19;}
	.st1{fill:#FF8000;}
	.st2{fill:#FFFFFF;}
	.st3{display:none;}
	.st4{display:inline;opacity:0.5;fill:#446CB2;}
</style>
<g id="Layer_1">
	<rect x="-6.49" y="-8.22" class="st1" width="583.4" height="133.54"/>
	<g>
		<g>
			<path class="st2" d="M113.2,50.55h-7.73c-2.51,0-2.51,0-3.03,2.93c-0.52,2.93-0.52,3.03,1.78,3.03h4.6l-2.61,14.94
				c-0.63,3.34-2.09,5.64-6.58,7c-1.15,0.31-1.46,0.73-1.46,1.25c0,0.63,0.21,1.15,0.73,2.4c0.73,1.78,1.15,2.09,1.78,2.09
				c0.63,0,1.78-0.31,2.19-0.42c6.37-2.09,8.98-7,10.03-12.85l2.93-16.82C116.33,50.55,116.33,50.55,113.2,50.55"/>
			<path class="st2" d="M139.42,50.55c-3.13,0-3.13,0-3.55,2.61l-2.3,13.58c-0.63,3.97-1.67,6.27-5.54,6.27
				c-3.76,0-5.12-2.3-4.49-5.85l2.19-12.95c0.63-3.66,0.52-3.66-2.72-3.66c-3.13,0-3.24,0-3.66,2.51l-2.3,13.58
				c-1.36,7.73,3.45,12.54,10.24,12.54c7.63,0,11.49-3.45,12.75-11.6l2.3-13.48C142.87,50.55,142.66,50.55,139.42,50.55"/>
			<path class="st2" d="M153.73,72.8c2.51-0.1,3.87-1.25,3.87-2.4c0-1.46-1.78-1.98-4.18-2.72c-4.7-1.46-8.98-3.13-8.98-8.15
				c0-5.95,4.91-9.19,11.07-9.19c2.61,0,5.54,0.1,7.42,0.31c1.67,0.21,2.09,0.73,1.57,3.34c-0.52,2.61-1.15,2.82-2.61,2.72
				c-1.78-0.1-4.07-0.31-6.79-0.31c-3.13,0-4.07,1.15-4.07,2.19c0,1.36,1.25,2.09,4.18,2.93c5.43,1.57,8.98,3.76,8.98,8.46
				c0,5.54-4.07,8.78-10.66,8.98c-3.55,0.1-6.69-0.1-9.4-0.52c-2.09-0.31-2.19-0.31-1.67-3.34c0.52-2.72,0.52-2.93,2.51-2.72
				C148.82,72.8,151.23,72.91,153.73,72.8"/>
			<path class="st2" d="M187.9,50.55h-17.66c-2.51,0-2.51,0-3.03,3.03c-0.52,3.03-0.42,3.03,1.78,3.03h5.75l-3.24,18.7
				c-0.63,3.66-0.52,3.66,2.72,3.66c3.03,0,3.13,0,3.55-2.61l3.34-19.74h5.54c2.51,0,2.51,0,3.03-3.03
				C190.19,50.55,190.19,50.55,187.9,50.55"/>
			<path class="st2" d="M219.03,56.51c2.51,0,2.51,0,3.03-3.03s0.52-3.03-1.78-3.03h-12.64c-4.49,0-4.39,0-5.12,4.49l-3.24,18.91
				c-0.84,4.91-0.73,4.91,3.76,4.91h12.33c2.61,0,2.51,0,3.03-2.93c0.52-3.03,0.52-3.03-1.78-3.03h-10.66l0.84-5.43h8.88
				c2.4,0,2.4,0,2.82-2.82c0.42-2.93,0.42-2.93-2.82-2.93h-7.84l0.84-5.12L219.03,56.51z"/>
			<path class="st2" d="M232.4,66.53l4.07-8.98c0.31-0.73,0.31-0.73,0.84-0.73c0.52,0,0.52,0,0.63,0.84l1.25,8.88H232.4z M243.47,54
				c-0.63-3.55-0.63-3.55-5.64-3.55c-4.7,0-4.6,0-6.06,2.93l-10.55,22.04c-1.57,3.13-1.25,3.45,2.61,3.45c3.03,0,3.03,0,4.28-2.82
				l1.67-3.76h10.24l0.52,3.76c0.42,2.82,0.52,2.82,3.55,2.82c3.45,0,3.76-0.21,3.13-3.66L243.47,54z"/>
			<path class="st2" d="M268.44,50.55h-17.76c-2.51,0-2.51,0-3.03,3.03c-0.52,3.03-0.42,3.03,1.78,3.03h5.75l-3.24,18.7
				c-0.63,3.66-0.52,3.66,2.72,3.66c3.03,0,3.13,0,3.55-2.61l3.34-19.74h5.54c2.51,0,2.51,0,3.03-3.03
				C270.74,50.55,270.74,50.55,268.44,50.55"/>
		</g>
		<path id="House_2_" class="st2" d="M87.12,59.15c-1.97-3.29-4.14-6.46-6.51-9.48l-0.06-0.08l-0.02-0.02
			c-0.12-0.15-0.43-0.53-0.54-0.68c-1.08-1.48-2.35-13.33-2.5-14.2c-0.18-1.03-0.47-2.1-1.96-2.26c-1.21-0.13-3-0.33-4.98-0.43
			c-0.92-0.05-1.39,0.45-1.63,0.9c-0.17,0.31-0.24,0.66-0.24,1.01c-0.03,1.52,0.01,2.26,0.01,2.45c0,0.02,0,0.04-0.01,0.06
			c-0.02,0.11-0.08,0.19-0.16,0.26c-0.17,0.14-0.42,0.13-0.6-0.01c-0.94-0.71-5.83-4.43-8.54-6.1c-0.13-0.07-0.26-0.14-0.39-0.2
			c-0.99-0.44-2.14-0.46-3.08,0.08c-0.07,0.04-0.13,0.08-0.19,0.12c-0.89,0.56-16.14,9.22-27.68,28.48c0,0-0.72,1.01-0.18,1.95
			c0.52,1.08,5.56,1.39,6.37,1.48c0.91,0.1,0.9,0.84,0.9,0.84c0.09,7.91,0.23,11.74,1.52,25.15c0,0,0.21,1.4,1.59,1.47
			c0.56,0.03,2.64-0.09,8.17-0.22c0.21,0.02,0.4-0.13,0.42-0.34c0-0.03,0-0.06,0-0.1c-0.53-5.47-0.7-10.21-0.71-10.48
			c-0.01-0.2-0.19-0.49-0.37-0.56c-2.04-1.17-3.25-3.21-3.27-5.56c-0.15-10.83,0.51-19.15,0.51-19.15s0.06-1.15,1.08-1.06
			c1.01,0.09,0.95,1.23,0.95,1.23c-0.36,4.67-0.5,13.08-0.5,13.08s0,1.6,1.53,1.6c1.53,0,1.53-1.6,1.53-1.6
			c-0.05-6.58,0.51-13.2,0.51-13.2s0-1.12,1.08-1.12c0.59,0,0.81,0.4,0.9,0.73c0.05,0.17,0.06,0.35,0.04,0.53
			c-0.45,5.7-0.5,13.05-0.5,13.05s0,1.6,1.53,1.6c1.53,0,1.53-1.73,1.53-1.73c-0.03-5.46,0.51-13.05,0.51-13.05
			c0.05-0.59,0.34-1.11,1.07-1.11c0.9,0.03,0.97,0.89,0.95,1.11c-0.48,5.92-0.49,15-0.47,18.89c0.07,2.34-1.12,4.54-3.11,5.76
			c-0.18,0.12-0.28,0.34-0.26,0.56c0.13,3.6,0.43,7.6,0.69,10.46c0.01,0.19,0.16,0.35,0.35,0.37c1.53,0,4.47-0.02,6.31-0.02
			c2.96,0,4.14,0.02,6.31,0.05c0.24,0,0.36-0.18,0.38-0.43c0.56-5.18,0.76-8.94,0.78-9.27c0.03-0.37-0.42-0.44-0.42-0.44
			c-0.68-0.09-2.27-0.28-3.62-0.5s-1.4-1.76-1.4-1.76c-1.14-16.17,7.39-26.25,7.39-26.25s0.85-1.12,2.03-0.68
			c1.04,0.39,1.31,3.38,1.33,3.56c1.14,13.39-0.15,29-0.89,35.37c-0.03,0.26,0.09,0.47,0.33,0.52c0.29,0.05,5.42,0.22,5.89,0.17
			c0.83-0.09,1.5-0.72,1.63-1.55c1.82-12.53,1.54-25.09,1.54-25.09c0.04-0.45,0.39-0.8,0.84-0.84l4.91-0.53
			c0.64-0.09,1.19-0.35,1.48-0.9C87.48,60.44,87.46,59.72,87.12,59.15"/>
		<g>
			<path class="st2" d="M290.8,56.46h-6.72c-0.47,0-0.86-0.38-0.86-0.86v-4.02c0-0.47,0.38-0.86,0.86-0.86h21.05
				c0.47,0,0.86,0.38,0.86,0.86v4.02c0,0.47-0.38,0.86-0.86,0.86h-6.72c-0.24,0-0.43,0.19-0.43,0.43v20.79
				c0,0.47-0.38,0.86-0.86,0.86h-5.05c-0.47,0-0.86-0.38-0.86-0.86V56.89C291.23,56.66,291.04,56.46,290.8,56.46z"/>
			<path class="st2" d="M301.64,72.59c0-3.85,2.87-6.03,8.81-6.33l5.26-0.26v-0.09c0-2.48-1.84-3.46-4.23-3.46
				c-1.7,0-3.33,0.5-4.31,1.32c-0.22,0.18-0.54,0.16-0.75-0.03c-0.67-0.65-2.05-1.99-2.85-2.76c-0.35-0.34-0.35-0.9,0-1.23
				c1.75-1.65,4.68-2.86,8.55-2.86c6.29,0,9.92,3.46,9.92,8.68v12.11c0,0.47-0.38,0.86-0.86,0.86h-4.23c-0.47,0-0.86-0.38-0.86-0.86
				v-1.2h-0.09c-1.28,1.67-3.55,2.57-6.33,2.57C305.14,79.05,301.64,76.7,301.64,72.59z M315.71,70.8v-0.15
				c0-0.25-0.21-0.44-0.45-0.43l-4,0.23c-2.14,0.13-3.25,0.77-3.25,2.05c0,1.45,1.41,2.1,3.12,2.1
				C313.74,74.6,315.71,73.15,315.71,70.8z"/>
			<path class="st2" d="M329.84,78.54h-4.62c-0.47,0-0.86-0.38-0.86-0.86V49.24c0-0.47,0.38-0.86,0.86-0.86h4.62
				c0.47,0,0.86,0.38,0.86,0.86v15.13c0,0.39,0.47,0.58,0.74,0.29l6.58-6.99c0.16-0.17,0.39-0.27,0.62-0.27h5.37
				c0.75,0,1.14,0.89,0.63,1.44l-6.9,7.46c-0.14,0.15-0.15,0.38-0.03,0.55l7.67,10.33c0.42,0.56,0.02,1.37-0.69,1.37h-5.45
				c-0.27,0-0.52-0.12-0.68-0.33l-4.92-6.38c-0.32-0.41-0.92-0.45-1.28-0.08l-1.41,1.41c-0.16,0.16-0.25,0.38-0.25,0.61v3.92
				C330.7,78.15,330.31,78.54,329.84,78.54z"/>
			<path class="st2" d="M344.17,67.97c0-5.18,3.17-11.08,10.82-11.08c7.7,0,10.69,5.9,10.69,11.08c0,0.4-0.05,0.96-0.12,1.44
				c-0.06,0.42-0.42,0.74-0.85,0.74l-13.53,0c-0.31,0-0.52,0.32-0.39,0.6c0.83,1.89,2.81,2.74,4.75,2.74c1.57,0,3.11-0.45,4.1-1.19
				c0.33-0.25,0.81-0.21,1.11,0.09l2.66,2.58c0.35,0.34,0.35,0.89,0,1.23c-1.72,1.65-4.63,2.86-8.09,2.86
				C347.68,79.05,344.17,73.15,344.17,67.97z M351.05,65.75h7.84c0.29,0,0.49-0.28,0.41-0.56c-0.65-2.12-2.33-2.99-4.31-2.99
				c-2.01,0-3.7,0.87-4.35,2.99C350.56,65.46,350.76,65.75,351.05,65.75z"/>
			<path class="st2" d="M387.66,57.41h5.16c0.38,0,0.71,0.24,0.82,0.6l3.88,12.57h0.09L401.56,58c0.11-0.36,0.44-0.6,0.82-0.6h5.29
				c0.37,0,0.7,0.24,0.81,0.59l4.04,12.58h0.09l3.88-12.57c0.11-0.36,0.44-0.6,0.82-0.6h5.16c0.59,0,1.01,0.59,0.8,1.15l-7.04,19.42
				c-0.12,0.34-0.44,0.56-0.8,0.56h-5.46c-0.36,0-0.69-0.23-0.81-0.58l-3.75-10.82c-0.13-0.39-0.68-0.38-0.81,0l-3.64,10.81
				c-0.12,0.35-0.44,0.58-0.81,0.58h-5.46c-0.36,0-0.68-0.23-0.8-0.56l-7.04-19.42C386.65,58,387.06,57.41,387.66,57.41z"/>
			<path class="st2" d="M445.07,85.87v-3.88c0-0.51,0.44-0.9,0.95-0.85c0.33,0.04,0.69,0.06,1.02,0.06c2.12,0,2.97-0.71,3.7-2.31
				c0.1-0.21,0.11-0.46,0.02-0.68l-7.71-19.63c-0.22-0.56,0.19-1.17,0.8-1.17h5.07c0.36,0,0.68,0.23,0.81,0.57l4.59,12.86h0.09
				l4.59-12.86c0.12-0.34,0.44-0.57,0.81-0.57h4.9c0.6,0,1.02,0.61,0.8,1.17l-7.88,19.96c-2.14,5.35-4.19,8.3-9.97,8.3
				c-0.59,0-1.25-0.04-1.84-0.12C445.38,86.65,445.07,86.29,445.07,85.87z"/>
			<path class="st2" d="M466.88,67.97c0-5.26,3.34-11.08,10.78-11.08c3.03,0,5.52,1.07,7.18,2.65c0.35,0.33,0.34,0.89,0,1.23
				l-1.32,1.27c-0.32,0.31-0.82,0.32-1.15,0.03c-1.32-1.16-3.03-1.68-4.71-1.68c-3.98,0-6.93,3.21-6.93,7.57
				c0,4.36,2.95,7.57,6.93,7.57c1.8,0,3.38-0.53,4.81-1.67c0.34-0.27,0.83-0.26,1.15,0.05l1.3,1.28c0.35,0.35,0.34,0.92-0.03,1.25
				c-1.76,1.6-4.16,2.61-7.23,2.61C470.21,79.05,466.88,73.23,466.88,67.97z"/>
			<path class="st2" d="M485.86,67.97c0-5.18,3.51-11.08,10.95-11.08c7.44,0,10.95,5.9,10.95,11.08s-3.51,11.08-10.95,11.08
				C489.37,79.05,485.86,73.15,485.86,67.97z M496.82,75.63c4.11,0,7.1-3.25,7.1-7.66s-2.99-7.66-7.1-7.66
				c-4.11,0-7.1,3.25-7.1,7.66S492.71,75.63,496.82,75.63z"/>
			<path class="st2" d="M510.25,57.41h1.88c0.47,0,0.86,0.38,0.86,0.86v1.28h0.09c1.11-1.58,3.34-2.65,6.25-2.65
				c3.01,0,5.4,1.07,6.9,3c0.17,0.22,0.5,0.23,0.68,0.01c1.58-1.97,4.09-3,7.27-3c5.3,0,8.68,3.25,8.68,8.9v11.89
				c0,0.47-0.38,0.86-0.86,0.86h-2.05c-0.47,0-0.86-0.38-0.86-0.86V66.52c0-4.02-1.93-6.25-5.48-6.25c-3.47,0-5.6,2.22-5.6,6.25
				v11.16c0,0.47-0.38,0.86-0.86,0.86h-2.05c-0.47,0-0.86-0.38-0.86-0.86V66.52c0-4.02-1.93-6.25-5.48-6.25
				c-3.47,0-5.6,2.22-5.6,6.25v11.16c0,0.47-0.38,0.86-0.86,0.86h-2.05c-0.47,0-0.86-0.38-0.86-0.86V58.26
				C509.4,57.79,509.78,57.41,510.25,57.41z"/>
			<path class="st2" d="M366.23,72.59c0-3.85,2.87-6.03,8.81-6.33L380.3,66v-0.09c0-2.48-1.84-3.46-4.23-3.46
				c-1.7,0-3.33,0.5-4.31,1.32c-0.22,0.18-0.54,0.16-0.75-0.03c-0.67-0.65-2.05-1.99-2.85-2.76c-0.35-0.34-0.35-0.9,0-1.23
				c1.75-1.65,4.68-2.86,8.55-2.86c6.29,0,9.92,3.46,9.92,8.68v12.11c0,0.47-0.38,0.86-0.86,0.86h-4.23c-0.47,0-0.86-0.38-0.86-0.86
				v-1.2h-0.09c-1.28,1.67-3.55,2.57-6.33,2.57C369.73,79.05,366.23,76.7,366.23,72.59z M380.3,70.8v-0.15
				c0-0.25-0.21-0.44-0.45-0.43l-4,0.23c-2.14,0.13-3.25,0.77-3.25,2.05c0,1.45,1.41,2.1,3.12,2.1
				C378.33,74.6,380.3,73.15,380.3,70.8z"/>
			<path class="st2" d="M422.57,72.59c0-3.85,2.87-6.03,8.81-6.33l5.26-0.26v-0.09c0-2.48-1.84-3.46-4.23-3.46
				c-1.7,0-3.33,0.5-4.31,1.32c-0.22,0.18-0.54,0.16-0.75-0.03c-0.67-0.65-2.05-1.99-2.85-2.76c-0.35-0.34-0.35-0.9,0-1.23
				c1.75-1.65,4.68-2.86,8.55-2.86c6.29,0,9.92,3.46,9.92,8.68v12.11c0,0.47-0.38,0.86-0.86,0.86h-4.23c-0.47,0-0.86-0.38-0.86-0.86
				v-1.2h-0.09c-1.28,1.67-3.55,2.57-6.33,2.57C426.08,79.05,422.57,76.7,422.57,72.59z M436.65,70.8v-0.15
				c0-0.25-0.21-0.44-0.45-0.43l-4,0.23c-2.14,0.13-3.25,0.77-3.25,2.05c0,1.45,1.41,2.1,3.12,2.1
				C434.68,74.6,436.65,73.15,436.65,70.8z"/>
			<circle class="st2" cx="463.94" cy="76.4" r="2.54"/>
		</g>
	</g>
</g>
<g id="Layer_2" class="st3">
</g>
</svg>
